<?xml version="1.0" encoding="UTF-8"?>
<svg version="1.1" xmlns="http://www.w3.org/2000/svg" width="1500" height="500">
<path d="M0 0 C3.71924985 1.73322835 6.06418267 3.85949128 8.9375 6.8125 C9.77152344 7.66457031 10.60554687 8.51664063 11.46484375 9.39453125 C12.71974609 10.68423828 12.71974609 10.68423828 14 12 C17.11167034 15.12363319 20.24031813 18.22951818 23.37812805 21.326828 C25.60852463 23.53036713 27.83351634 25.73933194 30.05834961 27.94848633 C31.23498468 29.11496811 32.413394 30.27966271 33.59350586 31.44262695 C35.30268913 33.12768058 37.00544429 34.81899907 38.70703125 36.51171875 C39.23819046 37.03255539 39.76934967 37.55339203 40.31660461 38.0900116 C41.58292938 39.35594144 42.79701461 40.67373347 44 42 C44 42.66 44 43.32 44 44 C44.54277588 44.2168042 45.08555176 44.4336084 45.64477539 44.65698242 C48.80608497 46.4596531 51.1575722 48.91118366 53.68359375 51.48828125 C54.22097672 52.02849411 54.75835968 52.56870697 55.31202698 53.12528992 C57.02528546 54.84970706 58.73146776 56.58093629 60.4375 58.3125 C61.58091562 59.46595552 62.72479125 60.61895523 63.86914062 61.77148438 C65.98260721 63.90123713 68.09331074 66.03364835 70.20092773 68.16918945 C72.79133339 70.78896735 75.39259373 73.39715612 78 76 C79.98 77.98 81.96 79.96 84 82 C84.33 68.47 84.66 54.94 85 41 C103.11126702 41 103.11126702 41 109.82763672 47.60693359 C119.57817178 57.45273583 120.03411576 68.26429143 120.08981133 81.34320641 C120.06599291 85.74674704 119.95156263 90.14563642 119.82509089 94.54724932 C119.71143356 99.17915522 119.70190739 103.81134232 119.68063354 108.44442749 C119.6250087 117.19000519 119.4777685 125.93146169 119.29634273 134.67523611 C119.09411599 144.64102059 118.99592782 154.60701749 118.9058249 164.57434773 C118.71841422 185.05185273 118.4024682 205.52566532 118 226 C114.94224821 224.63415283 112.84118809 223.08911635 110.48187256 220.72238159 C109.46392609 219.70855911 109.46392609 219.70855911 108.42541504 218.67425537 C107.69173706 217.93338684 106.95805908 217.19251831 106.20214844 216.42919922 C105.42127869 215.64862152 104.64040894 214.86804382 103.83587646 214.06381226 C101.25560727 211.48214955 98.68249478 208.89347442 96.109375 206.3046875 C94.32190835 204.51349081 92.53399968 202.72273512 90.7456665 200.93240356 C86.52051369 196.70039428 82.2998454 192.46396242 78.08131623 188.22535431 C73.27753114 183.39920285 68.46805558 178.57873937 63.65809584 173.75874305 C53.7657207 163.84547129 43.88126657 153.92434386 34 144 C33.67 157.86 33.34 171.72 33 186 C19.87814192 179.43907096 6.39206405 168.42907538 0 155 C-5.17070861 137.92003416 -2.87593676 118.3058261 -1.99127197 100.74279785 C-1.69096333 94.14051908 -1.56135262 87.53491943 -1.41601562 80.92773438 C-1.12149699 68.58730258 -0.66606665 56.25978835 -0.08100605 43.92985249 C-0.02605724 42.62077613 0 41.3102291 0 40 C0 26.66666667 0 13.33333333 0 0 Z M33 73 C31.11441684 83.41037199 29.09652721 96.2156162 35.08465576 105.67242432 C41.10186357 113.96951321 48.98432719 120.82766074 56.58337402 127.63293457 C59.70448327 130.4602005 62.7385655 133.37804636 65.78320312 136.28710938 C74.77293441 146.42154229 74.77293441 146.42154229 85 153 C86.88558316 142.58962801 88.90347279 129.7843838 82.91534424 120.32757568 C76.89813643 112.03048679 69.01567281 105.17233926 61.41662598 98.36706543 C58.29551673 95.5397995 55.2614345 92.62195364 52.21679688 89.71289062 C43.22706559 79.57845771 43.22706559 79.57845771 33 73 Z " fill="#000000" transform="translate(175,93)"/>
<path d="M0 0 C2.38855187 -0.05918523 4.77561556 -0.1022423 7.16455078 -0.13623047 C8.17023857 -0.16362556 8.17023857 -0.16362556 9.19624329 -0.1915741 C17.34656903 -0.27838893 21.48942707 2.73960456 27.25048828 8.07495117 C36.84617259 19.36919866 34.31241936 36.11168199 33.50732422 49.98583984 C32.53573253 62.94722593 32.53573253 62.94722593 38.11575317 74.14067078 C40.60951616 76.63808357 43.22633427 78.81376013 46 81 C47.26912352 82.27288188 48.52292075 83.56153919 49.75 84.875 C52.0068608 87.10267871 54.35459635 89.17606233 56.76953125 91.23046875 C60.78381303 94.72953386 64.3638812 98.49709038 67.9375 102.4375 C72.44296095 107.32318536 77.01118652 112.08362731 81.89329529 116.59565735 C83.28470182 117.89735129 84.65979424 119.21683733 86.01325989 120.55793762 C89.99436067 124.4525409 93.85442854 127.60676531 98.63696289 130.47265625 C106.70714873 135.91278037 113.40431647 142.10911783 115.6715126 151.89989471 C118.29769338 169.02530887 117.20158861 186.76136994 116.58459395 204.0304476 C116.33558557 211.12503079 116.21695285 218.22014877 116.10711932 225.31803393 C115.87892114 239.88316997 115.49357181 254.44146224 115 269 C102.16302486 262.60531614 89.70322985 254.69273417 83.13128662 241.43560791 C80.79961792 234.35455589 81.22021743 227.07264195 81.51953125 219.69921875 C81.55309723 218.86169193 81.58666321 218.02416512 81.62124634 217.1612587 C81.93050545 210.07740516 82.36502744 203.00071269 82.78554535 195.92279053 C84.08489301 172.84325877 83.6875454 155.88553876 67.79655457 138.09465027 C57.55938461 127.51701717 45.56701074 119.09938178 34 110 C33.67 135.74 33.34 161.48 33 188 C30.69 186.02 28.38 184.04 26 182 C23.65531728 180.14426256 23.65531728 180.14426256 21.30804086 178.29180932 C10.29689233 169.45256015 -0.71152494 160.13584474 -2.57292378 145.46685779 C-3.26632331 137.60764092 -2.99144068 129.73192506 -2.63624239 121.86281919 C-2.47081204 117.56128179 -2.45821936 113.25896956 -2.42758179 108.95474243 C-2.34757361 100.84793802 -2.13544555 92.75053076 -1.87249506 84.64782012 C-1.57924827 75.40568745 -1.43829306 66.16304244 -1.30841374 56.91739726 C-1.03849601 37.93965272 -0.58288681 18.97058768 0 0 Z " fill="#000000" transform="translate(93,137)"/>
<path d="M0 0 C1.62618871 -0.01161563 3.25262434 -0.00091671 4.87861633 0.0269165 C5.76662933 0.0263324 6.65464233 0.02574829 7.56956482 0.02514648 C10.50802043 0.0279357 13.44546465 0.05906718 16.38374329 0.09039307 C18.41969244 0.09785248 20.45564877 0.10354682 22.49160767 0.10754395 C27.85282683 0.12282384 33.21361321 0.16212614 38.57466125 0.20635986 C44.0441655 0.24726168 49.5137396 0.26554409 54.98335266 0.28570557 C65.71729746 0.32861808 76.45080732 0.39898737 87.18452454 0.48101807 C87.18452454 7.41101807 87.18452454 14.34101807 87.18452454 21.48101807 C61.11452454 21.48101807 35.04452454 21.48101807 8.18452454 21.48101807 C8.18452454 27.42101807 8.18452454 33.36101807 8.18452454 39.48101807 C34.25452454 39.48101807 60.32452454 39.48101807 87.18452454 39.48101807 C87.18452454 46.41101807 87.18452454 53.34101807 87.18452454 60.48101807 C61.11452454 60.48101807 35.04452454 60.48101807 8.18452454 60.48101807 C8.18452454 66.75101807 8.18452454 73.02101807 8.18452454 79.48101807 C34.25452454 79.48101807 60.32452454 79.48101807 87.18452454 79.48101807 C87.18452454 86.41101807 87.18452454 93.34101807 87.18452454 100.48101807 C75.27525164 100.48588368 63.3667557 100.46552918 51.457654 100.40073967 C45.92777565 100.37166428 40.39832194 100.35365483 34.86836243 100.36090088 C29.53178895 100.36748696 24.19605511 100.34504964 18.85965538 100.30246353 C16.8235339 100.29131953 14.78732739 100.29064377 12.75119972 100.30059433 C9.89902248 100.31274671 7.04941607 100.28772397 4.19746399 100.25396729 C2.93402664 100.27229866 2.93402664 100.27229866 1.64506531 100.29100037 C-3.9980159 100.17060503 -3.9980159 100.17060503 -6.37648964 98.16418839 C-7.60313223 96.66541706 -8.71510372 95.07480273 -9.81547546 93.48101807 C-10.80547546 92.82101807 -11.79547546 92.16101807 -12.81547546 91.48101807 C-13.13372692 88.84710563 -13.25603905 86.4447756 -13.25126648 83.80596924 C-13.26134232 83.01391586 -13.27141815 82.22186249 -13.28179932 81.4058075 C-13.31037544 78.77839164 -13.31616111 76.15154855 -13.31938171 73.52398682 C-13.3290179 71.70036073 -13.33911 69.87673699 -13.34963989 68.05311584 C-13.36762665 64.22556178 -13.3731585 60.39821104 -13.37138367 56.57061768 C-13.37107907 51.66736254 -13.41199686 46.76541349 -13.46370029 41.86246777 C-13.49707449 38.093735 -13.50314088 34.32531721 -13.50155449 30.5564518 C-13.50509426 28.74912332 -13.51836228 26.94178667 -13.54155159 25.1346035 C-13.57098179 22.6035603 -13.56231433 20.07534006 -13.54423523 17.54425049 C-13.56109375 16.7986084 -13.57795227 16.05296631 -13.59532166 15.284729 C-13.55718994 13.18186951 -13.55718994 13.18186951 -12.81547546 9.48101807 C-9.95742798 6.72706604 -9.95742798 6.72706604 -6.81547546 4.48101807 C-6.37604111 3.72725891 -5.93660675 2.97349976 -5.4838562 2.19689941 C-3.81547546 0.48101807 -3.81547546 0.48101807 0 0 Z " fill="#000000" transform="translate(1341.8154754638672,199.51898193359375)"/>
<path d="M0 0 C0.87840546 -0.00058411 1.75681091 -0.00116821 2.66183472 -0.00177002 C5.56239475 0.00101451 8.46192441 0.03212386 11.36230469 0.06347656 C13.37440428 0.07093764 15.38651115 0.0766312 17.39862061 0.08062744 C22.69242442 0.0958942 27.9857887 0.13518524 33.27941895 0.17944336 C38.68198704 0.22037344 44.08462621 0.23863364 49.48730469 0.25878906 C60.08648713 0.30167841 70.68522808 0.37203702 81.28417969 0.45410156 C81.28417969 7.38410156 81.28417969 14.31410156 81.28417969 21.45410156 C55.54417969 21.45410156 29.80417969 21.45410156 3.28417969 21.45410156 C3.28417969 27.39410156 3.28417969 33.33410156 3.28417969 39.45410156 C29.02417969 39.45410156 54.76417969 39.45410156 81.28417969 39.45410156 C81.28417969 46.38410156 81.28417969 53.31410156 81.28417969 60.45410156 C55.54417969 60.45410156 29.80417969 60.45410156 3.28417969 60.45410156 C3.28417969 66.72410156 3.28417969 72.99410156 3.28417969 79.45410156 C29.02417969 79.45410156 54.76417969 79.45410156 81.28417969 79.45410156 C81.28417969 86.05410156 81.28417969 92.65410156 81.28417969 99.45410156 C69.50563518 99.58964293 57.72760838 99.69972586 45.94846058 99.76497459 C40.47893621 99.79629045 35.00997292 99.83876873 29.54077148 99.90673828 C24.2628344 99.97192053 18.98543704 100.00780569 13.70712852 100.02336502 C11.69321889 100.03445332 9.67933887 100.05610663 7.66565895 100.0884819 C4.84489703 100.13203038 2.02636614 100.13803638 -0.79467773 100.13525391 C-1.62761856 100.15682556 -2.46055939 100.17839722 -3.31874084 100.20062256 C-8.90097325 100.14102577 -8.90097325 100.14102577 -11.27123451 98.14287186 C-12.49951586 96.64206975 -13.61334347 95.04960363 -14.71582031 93.45410156 C-15.70582031 92.79410156 -16.69582031 92.13410156 -17.71582031 91.45410156 C-18.02878644 88.81973992 -18.14602891 86.41765012 -18.13574219 83.77905273 C-18.14421173 82.98699936 -18.15268127 82.19494598 -18.16140747 81.37889099 C-18.18487182 78.75145556 -18.1857972 76.12460275 -18.18457031 73.49707031 C-18.19166783 71.67344425 -18.19936622 69.84982044 -18.2076416 68.02619934 C-18.22110924 64.19863689 -18.2226457 60.37128073 -18.21679688 56.54370117 C-18.21090823 51.64058964 -18.24144666 46.73847087 -18.28191376 41.83555126 C-18.30778067 38.0668251 -18.31066892 34.29833799 -18.30702209 30.52953529 C-18.30871528 28.72222721 -18.31837694 26.91490832 -18.33616638 25.107687 C-18.35832975 22.57689773 -18.34866808 20.04811702 -18.33105469 17.51733398 C-18.34431793 16.77169189 -18.35758118 16.0260498 -18.37124634 15.2578125 C-18.30923583 11.41870433 -17.91008584 9.68788314 -15.42736816 6.70014954 C-14.53255737 5.9589537 -13.63774658 5.21775787 -12.71582031 4.45410156 C-11.8407785 3.32346283 -11.8407785 3.32346283 -10.94805908 2.16998291 C-7.55666088 -0.43692321 -4.09986691 -0.07127859 0 0 Z " fill="#000000" transform="translate(940.7158203125,199.5458984375)"/>
<path d="M0 0 C0.77137802 -0.01036789 1.54275604 -0.02073578 2.33750916 -0.03141785 C4.87927956 -0.05845124 7.41931988 -0.04883469 9.96118164 -0.03637695 C11.73328634 -0.04228757 13.50538703 -0.049535 15.27748108 -0.05805969 C18.98891017 -0.06993408 22.69973935 -0.06324297 26.41113281 -0.04394531 C31.16074289 -0.0210691 35.90856272 -0.04782587 40.65799618 -0.08900738 C44.31702267 -0.11461956 47.97562281 -0.11199615 51.6347065 -0.10111427 C53.38535753 -0.09963007 55.13604165 -0.10728887 56.88661003 -0.12436485 C59.33826118 -0.1443966 61.78677331 -0.12590131 64.23828125 -0.09765625 C64.95691345 -0.11137268 65.67554565 -0.12508911 66.41595459 -0.13922119 C70.53593198 -0.04465586 72.77881902 0.79749994 75.68043518 3.58537292 C78.18383789 6.6628418 78.18383789 6.6628418 78.18383789 8.6628418 C79.50383789 9.3228418 80.82383789 9.9828418 82.18383789 10.6628418 C82.18383789 40.3628418 82.18383789 70.0628418 82.18383789 100.6628418 C74.92383789 100.6628418 67.66383789 100.6628418 60.18383789 100.6628418 C60.18383789 87.7928418 60.18383789 74.9228418 60.18383789 61.6628418 C41.70383789 61.6628418 23.22383789 61.6628418 4.18383789 61.6628418 C4.18383789 74.5328418 4.18383789 87.4028418 4.18383789 100.6628418 C-3.07616211 100.6628418 -10.33616211 100.6628418 -17.81616211 100.6628418 C-17.92911616 89.01467259 -18.02085144 77.36686701 -18.07522297 65.71827412 C-18.1013184 60.30937163 -18.13671601 54.90086319 -18.19335938 49.4921875 C-18.24768026 44.27262181 -18.27758305 39.05343517 -18.29054832 33.83360863 C-18.29978801 31.84205342 -18.31783112 29.850519 -18.34481239 27.85912514 C-18.3811037 25.06968968 -18.38610743 22.281821 -18.38378906 19.4921875 C-18.40176544 18.66859741 -18.41974182 17.84500732 -18.43826294 16.99645996 C-18.40131305 12.88852545 -18.25852807 11.2079614 -15.59318542 7.92350769 C-14.67676773 7.17748795 -13.76035004 6.4314682 -12.81616211 5.6628418 C-12.04924545 4.74838791 -11.2823288 3.83393402 -10.49217224 2.89176941 C-7.04415702 0.01981603 -4.29817176 -0.05099495 0 0 Z M4.18383789 21.6628418 C4.18383789 27.9328418 4.18383789 34.2028418 4.18383789 40.6628418 C22.66383789 40.6628418 41.14383789 40.6628418 60.18383789 40.6628418 C60.18383789 34.3928418 60.18383789 28.1228418 60.18383789 21.6628418 C41.70383789 21.6628418 23.22383789 21.6628418 4.18383789 21.6628418 Z " fill="#000000" transform="translate(481.816162109375,199.337158203125)"/>
<path d="M0 0 C1.8126582 -0.00285283 3.62531401 -0.00822906 5.43795776 -0.01600647 C9.22598557 -0.02326671 13.01249501 -0.00227593 16.80029297 0.03930664 C21.64767708 0.0905602 26.49205568 0.07458021 31.33947945 0.03792667 C35.0783998 0.01648802 38.81661811 0.02892018 42.55550766 0.05169487 C44.34241444 0.05886051 46.12939164 0.05597324 47.91626358 0.04271126 C61.8883499 -0.03063004 61.8883499 -0.03063004 65.84564209 2.57980347 C67.33243382 4.33032042 68.36100385 6.04144385 69.4921875 8.02734375 C70.4821875 8.68734375 71.4721875 9.34734375 72.4921875 10.02734375 C72.81043896 12.66125618 72.93275108 15.06358622 72.92797852 17.70239258 C72.93805435 18.49444595 72.94813019 19.28649933 72.95851135 20.10255432 C72.98708748 22.72997017 72.99287314 25.35681327 72.99609375 27.984375 C73.00572994 29.80800109 73.01582204 31.63162482 73.02635193 33.45524597 C73.04433868 37.28280003 73.04987054 41.11015078 73.0480957 44.93774414 C73.04779111 49.84099927 73.0887089 54.74294832 73.14041233 59.64589405 C73.17378652 63.41462681 73.17985292 67.18304461 73.17826653 70.95191002 C73.18180629 72.75923849 73.19507431 74.56657515 73.21826363 76.37375832 C73.24769383 78.90480152 73.23902636 81.43302175 73.22094727 83.96411133 C73.24623505 85.08257446 73.24623505 85.08257446 73.27203369 86.22363281 C73.22048705 89.06628891 73.09854277 91.33383362 71.17802238 93.53040123 C69.66919565 94.76403329 68.08202568 95.9000369 66.4921875 97.02734375 C65.8321875 98.01734375 65.1721875 99.00734375 64.4921875 100.02734375 C61.79871399 100.34551514 59.33187113 100.46789652 56.63354492 100.46313477 C55.82198441 100.4732106 55.01042389 100.48328644 54.17427063 100.4936676 C51.481927 100.52224571 48.79014227 100.5280295 46.09765625 100.53125 C44.22918972 100.54088599 42.3607255 100.55097807 40.49226379 100.56150818 C36.57055414 100.5794954 32.64904293 100.58502673 28.72729492 100.58325195 C23.7029845 100.58294734 18.67994855 100.62386666 13.65594006 100.67556858 C9.79456245 100.70893948 5.9334923 100.71500927 2.07198524 100.71342278 C0.22000048 100.71696298 -1.63199223 100.7302334 -3.48383522 100.75341988 C-6.07712264 100.78284322 -8.66765382 100.77418482 -11.26098633 100.75610352 C-12.40750168 100.7813913 -12.40750168 100.7813913 -13.57717896 100.80718994 C-16.49002187 100.75562114 -18.80273149 100.64137013 -21.05722618 98.67802238 C-22.28194643 97.18597307 -23.40165158 95.60929156 -24.5078125 94.02734375 C-25.1678125 93.69734375 -25.8278125 93.36734375 -26.5078125 93.02734375 C-26.6934947 82.2135663 -26.8354818 71.40017043 -26.92230988 60.58512115 C-26.96399224 55.56268348 -27.02049121 50.54133949 -27.11132812 45.51953125 C-27.19850555 40.66946229 -27.24613891 35.82044248 -27.26683044 30.96965027 C-27.28156776 29.12281279 -27.31034825 27.27603025 -27.35365295 25.42964172 C-27.71913719 9.19493706 -27.71913719 9.19493706 -23.61572266 3.89428711 C-17.02453095 -1.13993662 -7.88413566 -0.09621641 0 0 Z M-6.5078125 22.02734375 C-6.5078125 41.16734375 -6.5078125 60.30734375 -6.5078125 80.02734375 C12.6321875 80.02734375 31.7721875 80.02734375 51.4921875 80.02734375 C51.4921875 60.88734375 51.4921875 41.74734375 51.4921875 22.02734375 C32.3521875 22.02734375 13.2121875 22.02734375 -6.5078125 22.02734375 Z " fill="#000000" transform="translate(1061.5078125,198.97265625)"/>
<path d="M0 0 C14.89125 -0.144375 29.7825 -0.28875 45.125 -0.4375 C49.82121582 -0.50122803 54.51743164 -0.56495605 59.35595703 -0.63061523 C65.10522461 -0.66223145 65.10522461 -0.66223145 67.79953003 -0.66810608 C69.67521801 -0.67883245 71.55085866 -0.70340629 73.42623901 -0.73902893 C76.27345145 -0.79039244 79.11772468 -0.79733927 81.96533203 -0.79467773 C82.79626436 -0.81986449 83.62719669 -0.84505125 84.48330879 -0.87100124 C87.92673962 -0.82801136 90.11656066 -0.762632 92.78567123 1.54148674 C94.37716675 3.42466736 94.37716675 3.42466736 95.7121563 5.30137539 C97.06744907 7.2817864 97.06744907 7.2817864 100 9 C100.38768005 10.80134583 100.38768005 10.80134583 100.40405273 13.00317383 C100.41673691 13.82775589 100.42942108 14.65233795 100.44248962 15.50190735 C100.43955399 16.39459824 100.43661835 17.28728912 100.43359375 18.20703125 C100.4388356 19.12457687 100.44407745 20.0421225 100.44947815 20.98747253 C100.45590973 22.9318236 100.45454671 24.87621352 100.44604492 26.82055664 C100.43756258 29.79058695 100.4662351 32.7586769 100.49804688 35.72851562 C100.49965968 37.61718692 100.49907985 39.50586162 100.49609375 41.39453125 C100.50732773 42.28114944 100.51856171 43.16776764 100.53013611 44.08125305 C100.48537505 48.06085441 100.36918953 50.38765623 98.28149414 53.8503418 C97.52860107 54.559729 96.77570801 55.26911621 96 56 C95.27028992 56.69497086 94.54057983 57.38994171 93.78875732 58.10597229 C90.2976103 60.47703884 88.29278299 60.48477355 84.09838867 60.45410156 C83.42466217 60.45468567 82.75093567 60.45526978 82.05679321 60.45587158 C79.84331644 60.45309826 77.63120845 60.4220454 75.41796875 60.390625 C73.87812536 60.38315985 72.33827244 60.37746821 70.79841614 60.37347412 C66.75564101 60.35823912 62.71344541 60.3189765 58.67089844 60.2746582 C53.81511663 60.22644409 48.95914049 60.20816124 44.10318756 60.18484497 C36.73505595 60.14612331 29.36819462 60.06945667 22 60 C22 72.87 22 85.74 22 99 C14.74 99 7.48 99 0 99 C0 66.33 0 33.66 0 0 Z M22 21 C22 26.94 22 32.88 22 39 C40.81 39 59.62 39 79 39 C79 33.06 79 27.12 79 21 C60.19 21 41.38 21 22 21 Z " fill="#000000" transform="translate(1145,200)"/>
<path d="M0 0 C14.89125 -0.144375 29.7825 -0.28875 45.125 -0.4375 C49.82121582 -0.50122803 54.51743164 -0.56495605 59.35595703 -0.63061523 C65.10522461 -0.66223145 65.10522461 -0.66223145 67.79953003 -0.66810608 C69.67521801 -0.67883245 71.55085866 -0.70340629 73.42623901 -0.73902893 C76.27345145 -0.79039244 79.11772468 -0.79733927 81.96533203 -0.79467773 C82.79626436 -0.81986449 83.62719669 -0.84505125 84.48330879 -0.87100124 C87.92673962 -0.82801136 90.11656066 -0.762632 92.78567123 1.54148674 C94.37716675 3.42466736 94.37716675 3.42466736 95.7121563 5.30137539 C97.06744907 7.2817864 97.06744907 7.2817864 100 9 C100.34141402 12.05187789 100.49214129 14.89537188 100.50390625 17.953125 C100.51389145 18.84610291 100.52387665 19.73908081 100.53416443 20.65911865 C100.5493716 22.5521582 100.55638942 24.44527834 100.5559082 26.33837891 C100.56244487 29.22564956 100.6168254 32.10943608 100.67382812 34.99609375 C100.68263513 36.83592575 100.68858604 38.67577408 100.69140625 40.515625 C100.7129628 41.37520813 100.73451935 42.23479126 100.75672913 43.12042236 C100.70526786 47.65855901 100.29315259 50.25174764 97.08178711 53.59277344 C94 56 94 56 92 56 C91.34 57.32 90.68 58.64 90 60 C67.23 60 44.46 60 21 60 C21 72.87 21 85.74 21 99 C14.07 99 7.14 99 0 99 C0 66.33 0 33.66 0 0 Z M21 21 C21 26.94 21 32.88 21 39 C39.81 39 58.62 39 78 39 C78 33.06 78 27.12 78 21 C59.19 21 40.38 21 21 21 Z " fill="#000000" transform="translate(812,200)"/>
<path d="M0 0 C6.93 0 13.86 0 21 0 C21 13.2 21 26.4 21 40 C40.14 40 59.28 40 79 40 C79 26.8 79 13.6 79 0 C85.93 0 92.86 0 100 0 C100 33 100 66 100 100 C93.07 100 86.14 100 79 100 C79 87.13 79 74.26 79 61 C59.86 61 40.72 61 21 61 C21 73.87 21 86.74 21 100 C14.07 100 7.14 100 0 100 C0 67 0 34 0 0 Z " fill="#000000" transform="translate(353,200)"/>
<path d="M0 0 C1.58804741 -0.01446946 3.17649136 -0.0012534 4.76422119 0.03364563 C5.63287308 0.0329155 6.50152496 0.03218536 7.39649963 0.03143311 C10.26482812 0.0349138 13.13152834 0.07379719 15.99957275 0.11299133 C17.98924879 0.12231776 19.97893631 0.12943467 21.96862793 0.13442993 C27.20336657 0.15351311 32.43741063 0.20262565 37.671875 0.25794983 C43.01408492 0.30911363 48.35640716 0.33193787 53.6987915 0.35713196 C64.1796144 0.41074305 74.65973963 0.4986901 85.14019775 0.60127258 C85.14019775 7.53127258 85.14019775 14.46127258 85.14019775 21.60127258 C59.40019775 21.60127258 33.66019775 21.60127258 7.14019775 21.60127258 C7.14019775 27.87127258 7.14019775 34.14127258 7.14019775 40.60127258 C32.88019775 40.60127258 58.62019775 40.60127258 85.14019775 40.60127258 C85.14019775 47.53127258 85.14019775 54.46127258 85.14019775 61.60127258 C59.40019775 61.60127258 33.66019775 61.60127258 7.14019775 61.60127258 C7.14019775 74.47127258 7.14019775 87.34127258 7.14019775 100.60127258 C0.21019775 100.60127258 -6.71980225 100.60127258 -13.85980225 100.60127258 C-13.995347 88.95311219 -14.10542844 77.30547539 -14.17067528 65.6567049 C-14.20199032 60.24771136 -14.24446704 54.83928524 -14.31243896 49.43061829 C-14.37762424 44.21103527 -14.41350698 38.99199805 -14.4290657 33.77203941 C-14.44015348 31.7804575 -14.46180578 29.78890552 -14.49418259 27.79755592 C-14.53773528 25.00791987 -14.54373692 22.22053953 -14.54095459 19.43061829 C-14.57331207 18.19523315 -14.57331207 18.19523315 -14.60632324 16.93489075 C-14.55803137 12.46081686 -14.39868912 11.12988605 -11.06723022 7.86193848 C-10.00877899 7.11591873 -8.95032776 6.36989899 -7.85980225 5.60127258 C-7.25392273 4.68485489 -6.64804321 3.76843719 -6.02380371 2.82424927 C-3.85980225 0.60127258 -3.85980225 0.60127258 0 0 Z " fill="#000000" transform="translate(661.8598022460938,199.3987274169922)"/>
<path d="M0 0 C6.93 0 13.86 0 21 0 C20.67 26.4 20.34 52.8 20 80 C33.53 80 47.06 80 61 80 C61 86.6 61 93.2 61 100 C53.59862798 100.19830552 46.19881395 100.34319251 38.79541016 100.43945312 C36.27918551 100.47959359 33.7631464 100.5341201 31.24755859 100.60351562 C27.62290631 100.70097563 24.00072701 100.74602321 20.375 100.78125 C19.25697998 100.82254028 18.13895996 100.86383057 16.98706055 100.90637207 C11.71661767 100.90937506 7.58119297 100.4643523 3.27539062 97.2578125 C-2.67118545 90.23528144 -0.96558129 79.71917402 -0.78125 71.09375 C-0.76631555 69.04254366 -0.75493422 66.99130864 -0.74694824 64.94006348 C-0.71650907 59.5602234 -0.63801669 54.18213136 -0.54931641 48.80297852 C-0.46724749 43.30639286 -0.43089184 37.8095227 -0.390625 32.3125 C-0.3050137 21.54077791 -0.16438191 10.77080829 0 0 Z " fill="#000000" transform="translate(576,200)"/>
<path d="M0 0 C6.93 0 13.86 0 21 0 C20.67 26.07 20.34 52.14 20 79 C33.53 79 47.06 79 61 79 C61 85.6 61 92.2 61 99 C53.59859088 99.1735182 46.19837497 99.30029844 38.79541016 99.38452148 C36.27924974 99.4196435 33.76323137 99.46735304 31.24755859 99.52807617 C27.6230154 99.61335111 24.00036606 99.65277338 20.375 99.68359375 C19.25697998 99.71972275 18.13895996 99.75585175 16.98706055 99.79307556 C11.9516224 99.79558601 7.62179088 99.45447212 3.27539062 96.7578125 C-1.81791559 91.48717672 -0.96381704 84.04866992 -0.90637207 77.18006897 C-0.86552447 75.18383029 -0.82379659 73.18760945 -0.78125 71.19140625 C-0.76631873 69.13877063 -0.7549359 67.08610639 -0.74694824 65.03343201 C-0.71648404 59.64536042 -0.63796973 54.25902951 -0.54931641 48.87164307 C-0.46730182 43.36844427 -0.4309034 37.86496264 -0.390625 32.36132812 C-0.30496946 21.57333307 -0.16431683 10.78708398 0 0 Z " fill="#000000" transform="translate(1257,200)"/>
<path d="M0 0 C1.66385742 -0.00386719 1.66385742 -0.00386719 3.36132812 -0.0078125 C4.51955078 -0.00007813 5.67777344 0.00765625 6.87109375 0.015625 C8.03318359 0.00789063 9.19527344 0.00015625 10.39257812 -0.0078125 C11.50052734 -0.00523437 12.60847656 -0.00265625 13.75 0 C14.76779541 0.00225586 15.78559082 0.00451172 16.83422852 0.00683594 C19.30859375 0.265625 19.30859375 0.265625 21.30859375 2.265625 C21.53564453 4.42041016 21.53564453 4.42041016 21.50390625 7.0546875 C21.49746094 7.99570312 21.49101563 8.93671875 21.484375 9.90625 C21.46761719 10.89109375 21.45085938 11.8759375 21.43359375 12.890625 C21.42457031 13.88320313 21.41554688 14.87578125 21.40625 15.8984375 C21.38263491 18.35440634 21.34970174 20.80989668 21.30859375 23.265625 C16.96008421 25.43987977 11.08502009 24.45058974 6.30859375 24.453125 C5.09429688 24.46537109 3.88 24.47761719 2.62890625 24.49023438 C0.89253906 24.49313477 0.89253906 24.49313477 -0.87890625 24.49609375 C-1.94496094 24.50020264 -3.01101563 24.50431152 -4.109375 24.50854492 C-6.69140625 24.265625 -6.69140625 24.265625 -8.69140625 22.265625 C-9.1394534 18.9520674 -9.01550487 15.60602637 -9.00390625 12.265625 C-9.02001953 11.3375 -9.03613281 10.409375 -9.05273438 9.453125 C-9.05337891 8.56625 -9.05402344 7.679375 -9.0546875 6.765625 C-9.05766846 5.9509375 -9.06064941 5.13625 -9.0637207 4.296875 C-8.87942505 3.29140625 -8.87942505 3.29140625 -8.69140625 2.265625 C-5.27842977 -0.00969266 -4.0100972 0.00887821 0 0 Z M-1.69140625 4.265625 C-1.69140625 9.545625 -1.69140625 14.825625 -1.69140625 20.265625 C3.58859375 20.265625 8.86859375 20.265625 14.30859375 20.265625 C14.30859375 14.985625 14.30859375 9.705625 14.30859375 4.265625 C9.02859375 4.265625 3.74859375 4.265625 -1.69140625 4.265625 Z " fill="#000000" transform="translate(779.69140625,322.734375)"/>
<path d="M0 0 C1.20849609 0.00644531 2.41699219 0.01289063 3.66210938 0.01953125 C5.55606445 0.04466797 5.55606445 0.04466797 7.48828125 0.0703125 C8.76251953 0.07933594 10.03675781 0.08835937 11.34960938 0.09765625 C14.50018752 0.12125609 17.65039108 0.15418056 20.80078125 0.1953125 C20.80078125 1.5153125 20.80078125 2.8353125 20.80078125 4.1953125 C13.21078125 4.1953125 5.62078125 4.1953125 -2.19921875 4.1953125 C-2.19921875 6.1753125 -2.19921875 8.1553125 -2.19921875 10.1953125 C5.39078125 10.1953125 12.98078125 10.1953125 20.80078125 10.1953125 C20.80078125 11.5153125 20.80078125 12.8353125 20.80078125 14.1953125 C13.21078125 14.1953125 5.62078125 14.1953125 -2.19921875 14.1953125 C-2.19921875 16.1753125 -2.19921875 18.1553125 -2.19921875 20.1953125 C5.39078125 20.1953125 12.98078125 20.1953125 20.80078125 20.1953125 C20.80078125 21.5153125 20.80078125 22.8353125 20.80078125 24.1953125 C16.84981147 24.24470912 12.89896095 24.28103005 8.94775391 24.30517578 C6.94166765 24.32019357 4.93566801 24.34560231 2.9296875 24.37109375 C1.67285156 24.37753906 0.41601562 24.38398438 -0.87890625 24.390625 C-2.04147949 24.40109863 -3.20405273 24.41157227 -4.40185547 24.42236328 C-7.19921875 24.1953125 -7.19921875 24.1953125 -9.19921875 22.1953125 C-9.6472659 18.8817549 -9.52331737 15.53571387 -9.51171875 12.1953125 C-9.52783203 11.2671875 -9.54394531 10.3390625 -9.56054688 9.3828125 C-9.56119141 8.4959375 -9.56183594 7.6090625 -9.5625 6.6953125 C-9.56548096 5.880625 -9.56846191 5.0659375 -9.5715332 4.2265625 C-9.38723755 3.22109375 -9.38723755 3.22109375 -9.19921875 2.1953125 C-5.6590865 -0.16477567 -4.1879992 -0.03932394 0 0 Z " fill="#000000" transform="translate(431.19921875,322.8046875)"/>
<path d="M0 0 C1.21171875 0.00322266 2.4234375 0.00644531 3.671875 0.00976562 C4.94289063 0.01814453 6.21390625 0.02652344 7.5234375 0.03515625 C8.8021875 0.03966797 10.0809375 0.04417969 11.3984375 0.04882812 C14.56515042 0.06064422 17.73177106 0.0771181 20.8984375 0.09765625 C20.8984375 1.41765625 20.8984375 2.73765625 20.8984375 4.09765625 C13.3084375 4.09765625 5.7184375 4.09765625 -2.1015625 4.09765625 C-2.1015625 9.37765625 -2.1015625 14.65765625 -2.1015625 20.09765625 C3.1784375 20.09765625 8.4584375 20.09765625 13.8984375 20.09765625 C13.8984375 18.11765625 13.8984375 16.13765625 13.8984375 14.09765625 C11.5884375 14.09765625 9.2784375 14.09765625 6.8984375 14.09765625 C6.8984375 12.77765625 6.8984375 11.45765625 6.8984375 10.09765625 C11.5184375 10.09765625 16.1384375 10.09765625 20.8984375 10.09765625 C20.8984375 14.71765625 20.8984375 19.33765625 20.8984375 24.09765625 C16.44006444 24.12451392 11.98185154 24.14442596 7.5234375 24.16015625 C6.25242187 24.16853516 4.98140625 24.17691406 3.671875 24.18554688 C1.85429688 24.19038086 1.85429688 24.19038086 0 24.1953125 C-1.68101807 24.20316772 -1.68101807 24.20316772 -3.39599609 24.21118164 C-6.1015625 24.09765625 -6.1015625 24.09765625 -8.1015625 23.09765625 C-8.1015625 15.83765625 -8.1015625 8.57765625 -8.1015625 1.09765625 C-5.33538687 -0.28543156 -3.0913825 -0.01444571 0 0 Z " fill="#000000" transform="translate(840.1015625,322.90234375)"/>
<path d="M0 0 C1.53624023 0.00616333 1.53624023 0.00616333 3.10351562 0.01245117 C4.21597656 0.01438477 5.3284375 0.01631836 6.47460938 0.01831055 C8.22451172 0.03667969 8.22451172 0.03667969 10.00976562 0.05541992 C11.75966797 0.05638672 11.75966797 0.05638672 13.54492188 0.05737305 C22.22923833 0.10265627 22.22923833 0.10265627 24.50976562 1.24291992 C24.50976562 8.50291992 24.50976562 15.76291992 24.50976562 23.24291992 C21.86978913 24.56290817 19.86899246 24.37248024 16.91601562 24.37573242 C15.24732422 24.37766602 15.24732422 24.37766602 13.54492188 24.37963867 C12.37832031 24.37577148 11.21171875 24.3719043 10.00976562 24.36791992 C8.84316406 24.37178711 7.6765625 24.3756543 6.47460938 24.37963867 C5.36214844 24.37834961 4.2496875 24.37706055 3.10351562 24.37573242 C2.07935547 24.37460449 1.05519531 24.37347656 0 24.37231445 C-2.49023438 24.24291992 -2.49023438 24.24291992 -4.49023438 23.24291992 C-4.54812444 19.7846565 -4.58379258 16.32651699 -4.61523438 12.86791992 C-4.63199219 11.88307617 -4.64875 10.89823242 -4.66601562 9.88354492 C-4.67246094 8.9425293 -4.67890625 8.00151367 -4.68554688 7.03198242 C-4.69602051 6.1626709 -4.70649414 5.29335938 -4.71728516 4.39770508 C-4.36891118 1.09152368 -3.2379786 0.31586164 0 0 Z M1.50976562 4.24291992 C1.50976562 9.52291992 1.50976562 14.80291992 1.50976562 20.24291992 C7.11976563 20.24291992 12.72976563 20.24291992 18.50976562 20.24291992 C18.50976562 14.96291992 18.50976562 9.68291992 18.50976562 4.24291992 C12.89976562 4.24291992 7.28976562 4.24291992 1.50976562 4.24291992 Z " fill="#000000" transform="translate(667.490234375,322.757080078125)"/>
<path d="M0 0 C1.98 0 3.96 0 6 0 C6 3.3 6 6.6 6 10 C11.28 10 16.56 10 22 10 C22 6.7 22 3.4 22 0 C24.31 0 26.62 0 29 0 C29 7.92 29 15.84 29 24 C26.69 24 24.38 24 22 24 C22 20.7 22 17.4 22 14 C16.72 14 11.44 14 6 14 C6 17.3 6 20.6 6 24 C4.02 24 2.04 24 0 24 C0 16.08 0 8.16 0 0 Z " fill="#000000" transform="translate(543,323)"/>
<path d="M0 0 C4.4584922 -0.05371677 8.91634389 -0.09353771 13.375 -0.125 C15.28152344 -0.15013672 15.28152344 -0.15013672 17.2265625 -0.17578125 C18.43828125 -0.18222656 19.65 -0.18867188 20.8984375 -0.1953125 C22.01911621 -0.20578613 23.13979492 -0.21625977 24.29443359 -0.22705078 C27 0 27 0 29 2 C29.22705078 4.24658203 29.22705078 4.24658203 29.1953125 7.0078125 C29.18886719 7.99394531 29.18242188 8.98007812 29.17578125 9.99609375 C29.15902344 11.02863281 29.14226563 12.06117188 29.125 13.125 C29.11597656 14.16527344 29.10695313 15.20554687 29.09765625 16.27734375 C29.07403747 18.85179092 29.04110149 21.42578212 29 24 C27.02 24 25.04 24 23 24 C23 17.4 23 10.8 23 4 C17.39 4 11.78 4 6 4 C6 10.6 6 17.2 6 24 C4.02 24 2.04 24 0 24 C0 16.08 0 8.16 0 0 Z " fill="#000000" transform="translate(603,323)"/>
<path d="M0 0 C1.20849609 0.00644531 2.41699219 0.01289063 3.66210938 0.01953125 C5.55606445 0.04466797 5.55606445 0.04466797 7.48828125 0.0703125 C8.76251953 0.07933594 10.03675781 0.08835937 11.34960938 0.09765625 C14.50018752 0.12125609 17.65039108 0.15418056 20.80078125 0.1953125 C20.80078125 1.5153125 20.80078125 2.8353125 20.80078125 4.1953125 C13.21078125 4.1953125 5.62078125 4.1953125 -2.19921875 4.1953125 C-2.19921875 9.4753125 -2.19921875 14.7553125 -2.19921875 20.1953125 C5.39078125 20.1953125 12.98078125 20.1953125 20.80078125 20.1953125 C20.80078125 21.5153125 20.80078125 22.8353125 20.80078125 24.1953125 C16.84981147 24.24470912 12.89896095 24.28103005 8.94775391 24.30517578 C6.94166765 24.32019357 4.93566801 24.34560231 2.9296875 24.37109375 C1.67285156 24.37753906 0.41601562 24.38398438 -0.87890625 24.390625 C-2.04147949 24.40109863 -3.20405273 24.41157227 -4.40185547 24.42236328 C-7.19921875 24.1953125 -7.19921875 24.1953125 -9.19921875 22.1953125 C-9.6472659 18.8817549 -9.52331737 15.53571387 -9.51171875 12.1953125 C-9.52783203 11.2671875 -9.54394531 10.3390625 -9.56054688 9.3828125 C-9.56119141 8.4959375 -9.56183594 7.6090625 -9.5625 6.6953125 C-9.56548096 5.880625 -9.56846191 5.0659375 -9.5715332 4.2265625 C-9.38723755 3.22109375 -9.38723755 3.22109375 -9.19921875 2.1953125 C-5.6590865 -0.16477567 -4.1879992 -0.03932394 0 0 Z " fill="#000000" transform="translate(491.19921875,322.8046875)"/>
<path d="M0 0 C13.53 0 27.06 0 41 0 C41 1.32 41 2.64 41 4 C35.39 4 29.78 4 24 4 C24 10.6 24 17.2 24 24 C21.69 24 19.38 24 17 24 C17 17.4 17 10.8 17 4 C11.39 4 5.78 4 0 4 C0 2.68 0 1.36 0 0 Z " fill="#000000" transform="translate(351,323)"/>
<path d="M0 0 C1.98 0 3.96 0 6 0 C6 3.3 6 6.6 6 10 C11.61 10 17.22 10 23 10 C23 6.7 23 3.4 23 0 C24.98 0 26.96 0 29 0 C29 4.29 29 8.58 29 13 C25.57067929 14.71466036 21.78283935 14.05404056 18 14 C18 17.3 18 20.6 18 24 C15.69 24 13.38 24 11 24 C11 20.7 11 17.4 11 14 C9.55625 14.020625 8.1125 14.04125 6.625 14.0625 C2.25 14.125 2.25 14.125 0 13 C0 8.71 0 4.42 0 0 Z " fill="#000000" transform="translate(892,323)"/>
<path d="M0 0 C1.98 0 3.96 0 6 0 C6 6.6 6 13.2 6 20 C9.96 20 13.92 20 18 20 C18 21.32 18 22.64 18 24 C15.37493198 24.02690844 12.75013827 24.04679404 10.125 24.0625 C9.37863281 24.07087891 8.63226562 24.07925781 7.86328125 24.08789062 C2.2265625 24.11328125 2.2265625 24.11328125 0 23 C0 15.41 0 7.82 0 0 Z " fill="#000000" transform="translate(723,323)"/>
<path d="M0 0 C3.63 0 7.26 0 11 0 C11 3.96 11 7.92 11 12 C2.52808989 4.83146067 2.52808989 4.83146067 0 2 C0 1.34 0 0.68 0 0 Z " fill="#000000" transform="translate(115,137)"/>
<path d="M0 0 C3.63 0 7.26 0 11 0 C11 3.63 11 7.26 11 11 C7.57542133 9.28771067 5.85081765 8.12304686 3.25 5.5 C2.63640625 4.8915625 2.0228125 4.283125 1.390625 3.65625 C0 2 0 2 0 0 Z " fill="#000000" transform="translate(282,134)"/>
</svg>
